<mxfile host="app.diagrams.net" agent="Mozilla/5.0 (Windows NT 10.0; Win64; x64) AppleWebKit/537.36 (KHTML, like Gecko) Chrome/128.0.0.0 Safari/537.36" version="24.7.13">
  <diagram name="Page-1" id="c7558073-3199-34d8-9f00-42111426c3f3">
    <mxGraphModel dx="1434" dy="1915" grid="1" gridSize="10" guides="1" tooltips="1" connect="1" arrows="1" fold="1" page="1" pageScale="1" pageWidth="826" pageHeight="1169" background="none" math="1" shadow="0">
      <root>
        <mxCell id="0" />
        <mxCell id="1" parent="0" />
        <mxCell id="8HuYiIvFP8ExP7IEhl2--209" value="user profile&lt;div&gt;API 호출&lt;/div&gt;" style="strokeWidth=2;html=1;shape=mxgraph.flowchart.terminator;whiteSpace=wrap;sketch=1;hachureGap=4;jiggle=2;curveFitting=1;fontFamily=Courier New;labelBackgroundColor=none;fontStyle=1;fillColor=#eeeeee;strokeColor=#36393d;fontSize=11;" parent="1" vertex="1">
          <mxGeometry x="39.139999999999986" y="-1140" width="132.18" height="60" as="geometry" />
        </mxCell>
        <mxCell id="8HuYiIvFP8ExP7IEhl2--210" value="" style="endArrow=classic;html=1;rounded=0;sketch=1;hachureGap=4;jiggle=2;curveFitting=1;fontFamily=Courier New;exitX=0.5;exitY=1;exitDx=0;exitDy=0;exitPerimeter=0;entryX=0.5;entryY=0;entryDx=0;entryDy=0;entryPerimeter=0;fillColor=#eeeeee;strokeColor=#36393d;fontSize=11;fontStyle=1" parent="1" source="8HuYiIvFP8ExP7IEhl2--209" target="8HuYiIvFP8ExP7IEhl2--211" edge="1">
          <mxGeometry width="50" height="50" relative="1" as="geometry">
            <mxPoint x="104.80999999999997" y="-1050" as="sourcePoint" />
            <mxPoint x="105.22999999999999" y="-1030" as="targetPoint" />
          </mxGeometry>
        </mxCell>
        <mxCell id="8HuYiIvFP8ExP7IEhl2--211" value="회원의&lt;div style=&quot;font-size: 11px;&quot;&gt;관심키워드가&lt;div style=&quot;font-size: 11px;&quot;&gt;존재하는가?&lt;/div&gt;&lt;/div&gt;" style="strokeWidth=2;html=1;shape=mxgraph.flowchart.decision;whiteSpace=wrap;sketch=1;hachureGap=4;jiggle=2;curveFitting=1;fontFamily=Courier New;fillColor=#eeeeee;strokeColor=#36393d;fontSize=11;fontStyle=1" parent="1" vertex="1">
          <mxGeometry x="40.22999999999999" y="-1010" width="130" height="80" as="geometry" />
        </mxCell>
        <mxCell id="8HuYiIvFP8ExP7IEhl2--214" value="" style="endArrow=classic;html=1;rounded=0;sketch=1;hachureGap=4;jiggle=2;curveFitting=1;fontFamily=Courier New;exitX=1;exitY=0.5;exitDx=0;exitDy=0;exitPerimeter=0;entryX=0;entryY=0.5;entryDx=0;entryDy=0;entryPerimeter=0;fillColor=#eeeeee;strokeColor=#36393d;fontSize=11;fontStyle=1" parent="1" source="8HuYiIvFP8ExP7IEhl2--211" target="8HuYiIvFP8ExP7IEhl2--218" edge="1">
          <mxGeometry width="50" height="50" relative="1" as="geometry">
            <mxPoint x="370.23" y="-940" as="sourcePoint" />
            <mxPoint x="236.48" y="-970" as="targetPoint" />
          </mxGeometry>
        </mxCell>
        <mxCell id="8HuYiIvFP8ExP7IEhl2--215" value="YES" style="text;html=1;align=center;verticalAlign=middle;whiteSpace=wrap;rounded=0;fontFamily=Courier New;fontSize=12;fillColor=none;fontStyle=1;fontColor=#3E17FF;" parent="1" vertex="1">
          <mxGeometry x="110.22999999999999" y="-917" width="60" height="30" as="geometry" />
        </mxCell>
        <mxCell id="8HuYiIvFP8ExP7IEhl2--217" value="" style="endArrow=classic;html=1;rounded=0;sketch=1;hachureGap=4;jiggle=2;curveFitting=1;fontFamily=Courier New;exitX=0.5;exitY=1;exitDx=0;exitDy=0;exitPerimeter=0;fillColor=#eeeeee;strokeColor=#36393d;fontSize=11;fontStyle=1" parent="1" source="8HuYiIvFP8ExP7IEhl2--211" target="8HuYiIvFP8ExP7IEhl2--226" edge="1">
          <mxGeometry width="50" height="50" relative="1" as="geometry">
            <mxPoint x="180.23" y="-965" as="sourcePoint" />
            <mxPoint x="105.22999999999993" y="-879.9999999999999" as="targetPoint" />
          </mxGeometry>
        </mxCell>
        <mxCell id="8HuYiIvFP8ExP7IEhl2--218" value="user profile API&amp;nbsp;&lt;span style=&quot;background-color: initial; font-size: 11px;&quot;&gt;종료&lt;/span&gt;&lt;div style=&quot;font-size: 11px;&quot;&gt;&lt;span style=&quot;background-color: initial; font-size: 11px;&quot;&gt;(return empty list)&lt;/span&gt;&lt;/div&gt;" style="strokeWidth=2;html=1;shape=mxgraph.flowchart.terminator;whiteSpace=wrap;sketch=1;hachureGap=4;jiggle=2;curveFitting=1;fontFamily=Courier New;fillColor=#eeeeee;strokeColor=#36393d;fontSize=11;fontStyle=1" parent="1" vertex="1">
          <mxGeometry x="246.48" y="-1000" width="157.5" height="60" as="geometry" />
        </mxCell>
        <mxCell id="8HuYiIvFP8ExP7IEhl2--223" value="NO" style="text;html=1;align=center;verticalAlign=middle;whiteSpace=wrap;rounded=0;fontFamily=Courier New;fontSize=12;fillColor=none;fontStyle=1;fontColor=#FF432E;" parent="1" vertex="1">
          <mxGeometry x="175.23" y="-1000" width="60" height="30" as="geometry" />
        </mxCell>
        <mxCell id="8HuYiIvFP8ExP7IEhl2--226" value="관심키워드,&lt;div style=&quot;font-size: 11px;&quot;&gt;관심지역위도,&lt;/div&gt;&lt;div style=&quot;font-size: 11px;&quot;&gt;관심지역경도&lt;/div&gt;&lt;div style=&quot;font-size: 11px;&quot;&gt;값 추출&lt;/div&gt;" style="rounded=1;whiteSpace=wrap;html=1;absoluteArcSize=1;arcSize=14;strokeWidth=2;sketch=1;hachureGap=4;jiggle=2;curveFitting=1;fontFamily=Courier New;fillColor=#eeeeee;strokeColor=#36393d;fontSize=11;fontStyle=1" parent="1" vertex="1">
          <mxGeometry x="35.22999999999999" y="-870" width="139.38" height="80" as="geometry" />
        </mxCell>
        <mxCell id="8HuYiIvFP8ExP7IEhl2--227" value="" style="endArrow=classic;html=1;rounded=0;sketch=1;hachureGap=4;jiggle=2;curveFitting=1;fontFamily=Courier New;exitX=0.5;exitY=1;exitDx=0;exitDy=0;entryX=0.5;entryY=0;entryDx=0;entryDy=0;entryPerimeter=0;fillColor=#eeeeee;strokeColor=#36393d;fontSize=11;fontStyle=1" parent="1" source="8HuYiIvFP8ExP7IEhl2--226" target="8HuYiIvFP8ExP7IEhl2--229" edge="1">
          <mxGeometry width="50" height="50" relative="1" as="geometry">
            <mxPoint x="356.48" y="-820" as="sourcePoint" />
            <mxPoint x="104.47999999999999" y="-730" as="targetPoint" />
          </mxGeometry>
        </mxCell>
        <mxCell id="8HuYiIvFP8ExP7IEhl2--229" value="회원의&lt;div style=&quot;font-size: 11px;&quot;&gt;수강완료한&amp;nbsp;&lt;span style=&quot;background-color: initial; font-size: 11px;&quot;&gt;강의가&lt;/span&gt;&lt;/div&gt;&lt;div style=&quot;font-size: 11px;&quot;&gt;&lt;span style=&quot;background-color: initial; font-size: 11px;&quot;&gt;존재하는가?&lt;/span&gt;&lt;/div&gt;" style="strokeWidth=2;html=1;shape=mxgraph.flowchart.decision;whiteSpace=wrap;sketch=1;hachureGap=4;jiggle=2;curveFitting=1;fontFamily=Courier New;fillColor=#eeeeee;strokeColor=#36393d;fontSize=11;fontStyle=1" parent="1" vertex="1">
          <mxGeometry x="34.61" y="-740" width="140" height="87.5" as="geometry" />
        </mxCell>
        <mxCell id="8HuYiIvFP8ExP7IEhl2--232" value="" style="endArrow=classic;html=1;rounded=0;sketch=1;hachureGap=4;jiggle=2;curveFitting=1;fontFamily=Courier New;entryX=0.5;entryY=0;entryDx=0;entryDy=0;fillColor=#eeeeee;strokeColor=#36393d;fontSize=11;fontStyle=1" parent="1" source="8HuYiIvFP8ExP7IEhl2--229" target="8HuYiIvFP8ExP7IEhl2--237" edge="1">
          <mxGeometry width="50" height="50" relative="1" as="geometry">
            <mxPoint x="104.37" y="-650" as="sourcePoint" />
            <mxPoint x="104.37" y="-600" as="targetPoint" />
          </mxGeometry>
        </mxCell>
        <mxCell id="8HuYiIvFP8ExP7IEhl2--233" value="" style="endArrow=classic;html=1;rounded=0;sketch=1;hachureGap=4;jiggle=2;curveFitting=1;fontFamily=Courier New;exitX=1;exitY=0.5;exitDx=0;exitDy=0;exitPerimeter=0;entryX=0;entryY=0.5;entryDx=0;entryDy=0;fillColor=#eeeeee;strokeColor=#36393d;fontSize=11;fontStyle=1" parent="1" source="8HuYiIvFP8ExP7IEhl2--229" target="8HuYiIvFP8ExP7IEhl2--236" edge="1">
          <mxGeometry width="50" height="50" relative="1" as="geometry">
            <mxPoint x="185.48" y="-696.6700000000001" as="sourcePoint" />
            <mxPoint x="246.48" y="-697" as="targetPoint" />
          </mxGeometry>
        </mxCell>
        <mxCell id="8HuYiIvFP8ExP7IEhl2--236" value="제외 대상 강좌번호&lt;div style=&quot;font-size: 11px;&quot;&gt;set update 하지 않음&lt;/div&gt;" style="rounded=1;whiteSpace=wrap;html=1;absoluteArcSize=1;arcSize=14;strokeWidth=2;sketch=1;hachureGap=4;jiggle=2;curveFitting=1;fontFamily=Courier New;fillColor=#eeeeee;strokeColor=#36393d;fontSize=11;fontStyle=1" parent="1" vertex="1">
          <mxGeometry x="255.54000000000002" y="-736.25" width="139.38" height="80" as="geometry" />
        </mxCell>
        <mxCell id="8HuYiIvFP8ExP7IEhl2--237" value="제외 대상 강좌번호&lt;div style=&quot;font-size: 11px;&quot;&gt;set update&lt;/div&gt;" style="rounded=1;whiteSpace=wrap;html=1;absoluteArcSize=1;arcSize=14;strokeWidth=2;sketch=1;hachureGap=4;jiggle=2;curveFitting=1;fontFamily=Courier New;fillColor=#eeeeee;strokeColor=#36393d;fontSize=11;fontStyle=1" parent="1" vertex="1">
          <mxGeometry x="35.53999999999999" y="-600" width="139.38" height="80" as="geometry" />
        </mxCell>
        <mxCell id="8HuYiIvFP8ExP7IEhl2--238" value="&lt;font style=&quot;font-size: 11px;&quot; color=&quot;#5d00ff&quot;&gt;&lt;span style=&quot;font-size: 11px;&quot;&gt;Jaccard Similarity,&lt;/span&gt;&lt;/font&gt;&lt;div style=&quot;font-size: 11px;&quot;&gt;&lt;font style=&quot;font-size: 11px;&quot; color=&quot;#0066ff&quot;&gt;&lt;span style=&quot;font-size: 11px;&quot;&gt;Distance &amp;lt; 20 km,&lt;/span&gt;&lt;/font&gt;&lt;/div&gt;&lt;div style=&quot;font-size: 11px;&quot;&gt;&lt;font style=&quot;font-size: 11px;&quot; color=&quot;#009900&quot;&gt;&lt;span style=&quot;font-size: 11px;&quot;&gt;not in &quot;class serial number&quot;&lt;/span&gt;&lt;/font&gt;&lt;/div&gt;" style="rounded=1;whiteSpace=wrap;html=1;absoluteArcSize=1;arcSize=14;strokeWidth=2;sketch=1;hachureGap=4;jiggle=2;curveFitting=1;fontFamily=Courier New;fillColor=#eeeeee;strokeColor=#36393d;fontSize=11;fontStyle=1" parent="1" vertex="1">
          <mxGeometry x="10.000000000000004" y="-440" width="190.46" height="80" as="geometry" />
        </mxCell>
        <mxCell id="8HuYiIvFP8ExP7IEhl2--240" value="" style="endArrow=classic;html=1;rounded=0;sketch=1;hachureGap=4;jiggle=2;curveFitting=1;fontFamily=Courier New;entryX=0.5;entryY=0;entryDx=0;entryDy=0;exitX=0.5;exitY=1;exitDx=0;exitDy=0;fillColor=#eeeeee;strokeColor=#36393d;fontSize=11;fontStyle=1" parent="1" source="8HuYiIvFP8ExP7IEhl2--237" target="8HuYiIvFP8ExP7IEhl2--238" edge="1">
          <mxGeometry width="50" height="50" relative="1" as="geometry">
            <mxPoint x="104.10999999999999" y="-510" as="sourcePoint" />
            <mxPoint x="105.10999999999999" y="-458" as="targetPoint" />
          </mxGeometry>
        </mxCell>
        <mxCell id="8HuYiIvFP8ExP7IEhl2--245" value="NO" style="text;html=1;align=center;verticalAlign=middle;whiteSpace=wrap;rounded=0;fontFamily=Courier New;fontSize=12;fillColor=none;fontStyle=1;fontColor=#FF432E;" parent="1" vertex="1">
          <mxGeometry x="175.23" y="-730" width="60" height="30" as="geometry" />
        </mxCell>
        <mxCell id="8HuYiIvFP8ExP7IEhl2--247" value="YES" style="text;html=1;align=center;verticalAlign=middle;whiteSpace=wrap;rounded=0;fontFamily=Courier New;fontSize=12;fillColor=none;fontStyle=1;fontColor=#3E17FF;" parent="1" vertex="1">
          <mxGeometry x="110.22999999999999" y="-645" width="60" height="30" as="geometry" />
        </mxCell>
        <mxCell id="8HuYiIvFP8ExP7IEhl2--248" value="user profile&lt;div&gt;API 종료&lt;/div&gt;" style="strokeWidth=2;html=1;shape=mxgraph.flowchart.terminator;whiteSpace=wrap;sketch=1;hachureGap=4;jiggle=2;curveFitting=1;fontFamily=Courier New;labelBackgroundColor=none;fontStyle=1;fillColor=#eeeeee;strokeColor=#36393d;fontSize=11;" parent="1" vertex="1">
          <mxGeometry x="34.61" y="-140" width="130.3" height="60" as="geometry" />
        </mxCell>
        <mxCell id="S92XERj_PqHJQFMyFbLS-4" value="&lt;div style=&quot;font-size: 11px;&quot;&gt;&lt;span style=&quot;font-size: 11px;&quot;&gt;Jaccard Similarity 공식&lt;/span&gt;&lt;/div&gt;\[&lt;br style=&quot;font-size: 11px;&quot;&gt;J(A, B) = \frac{|A \cap B|}{|A \cup B|}&lt;br style=&quot;font-size: 11px;&quot;&gt;\]" style="rounded=1;whiteSpace=wrap;html=1;absoluteArcSize=1;arcSize=14;strokeWidth=2;sketch=1;hachureGap=4;jiggle=2;curveFitting=1;fontFamily=Courier New;fillColor=none;strokeColor=none;fontSize=11;fontStyle=1" parent="1" vertex="1">
          <mxGeometry x="547.35" y="-440" width="150" height="80" as="geometry" />
        </mxCell>
        <mxCell id="BTvdHkG63R1qvQy1ZEPR-1" value="&lt;span style=&quot;font-size: 11px;&quot;&gt;추천 강좌번호&lt;/span&gt;&lt;div style=&quot;font-size: 11px;&quot;&gt;최대 12개&amp;nbsp;&lt;span style=&quot;background-color: initial; font-size: 11px;&quot;&gt;List Return&lt;/span&gt;&lt;/div&gt;" style="shape=parallelogram;html=1;strokeWidth=2;perimeter=parallelogramPerimeter;whiteSpace=wrap;rounded=1;arcSize=12;size=0.23;fillColor=#eeeeee;strokeColor=#36393d;sketch=1;curveFitting=1;jiggle=2;fontFamily=Courier New;fontSize=11;fontStyle=1" parent="1" vertex="1">
          <mxGeometry x="14.609999999999989" y="-290" width="180" height="90" as="geometry" />
        </mxCell>
        <mxCell id="BTvdHkG63R1qvQy1ZEPR-6" value="" style="endArrow=classic;html=1;rounded=0;fontSize=11;startSize=8;endSize=8;curved=1;exitX=0.5;exitY=1;exitDx=0;exitDy=0;sketch=1;curveFitting=1;jiggle=2;fontFamily=Courier New;fontStyle=1" parent="1" source="8HuYiIvFP8ExP7IEhl2--238" target="BTvdHkG63R1qvQy1ZEPR-1" edge="1">
          <mxGeometry width="50" height="50" relative="1" as="geometry">
            <mxPoint x="124.91" y="-200" as="sourcePoint" />
            <mxPoint x="174.91" y="-250" as="targetPoint" />
          </mxGeometry>
        </mxCell>
        <mxCell id="BTvdHkG63R1qvQy1ZEPR-7" value="" style="endArrow=classic;html=1;rounded=0;fontSize=11;startSize=8;endSize=8;curved=1;exitX=0.471;exitY=0.991;exitDx=0;exitDy=0;sketch=1;curveFitting=1;jiggle=2;exitPerimeter=0;fontFamily=Courier New;fontStyle=1" parent="1" source="BTvdHkG63R1qvQy1ZEPR-1" target="8HuYiIvFP8ExP7IEhl2--248" edge="1">
          <mxGeometry width="50" height="50" relative="1" as="geometry">
            <mxPoint x="114.91" y="-340" as="sourcePoint" />
            <mxPoint x="114.91" y="-280" as="targetPoint" />
          </mxGeometry>
        </mxCell>
        <mxCell id="BTvdHkG63R1qvQy1ZEPR-8" value="" style="strokeWidth=2;html=1;shape=mxgraph.flowchart.annotation_2;align=left;labelPosition=right;pointerEvents=1;fontFamily=Courier New;fontSize=11;fontStyle=1" parent="1" vertex="1">
          <mxGeometry x="200.46" y="-436.25" width="104.45" height="72.5" as="geometry" />
        </mxCell>
        <mxCell id="BTvdHkG63R1qvQy1ZEPR-9" value="&lt;font color=&quot;#5d00ff&quot; style=&quot;forced-color-adjust: none; font-size: 11px; font-style: normal; font-variant-ligatures: normal; font-variant-caps: normal; letter-spacing: normal; orphans: 2; text-align: center; text-indent: 0px; text-transform: none; widows: 2; word-spacing: 0px; -webkit-text-stroke-width: 0px; white-space: normal; background-color: rgb(251, 251, 251); text-decoration-thickness: initial; text-decoration-style: initial; text-decoration-color: initial;&quot;&gt;&lt;span style=&quot;forced-color-adjust: none; font-size: 11px;&quot;&gt;&lt;span style=&quot;font-size: 11px;&quot;&gt;회원의 관심키워드를&amp;nbsp;&lt;/span&gt;강좌명, 관심키워드, 학습내용 키워드에서&amp;nbsp;&lt;/span&gt;&lt;/font&gt;&lt;span style=&quot;text-align: center; color: rgb(93, 0, 255);&quot;&gt;각각 Jaccard 유사도 비교 계산 하여&lt;/span&gt;&lt;div style=&quot;font-size: 11px;&quot;&gt;&lt;div style=&quot;font-size: 11px;&quot;&gt;&lt;font style=&quot;text-align: center; font-size: 11px;&quot; color=&quot;#0066ff&quot;&gt;&lt;span style=&quot;font-size: 11px;&quot;&gt;관심지역 20km 반경 내 강좌를 포함,&lt;/span&gt;&lt;/font&gt;&lt;/div&gt;&lt;div style=&quot;font-size: 11px;&quot;&gt;&lt;span style=&quot;color: rgb(0, 153, 0); background-color: initial; text-align: center; font-size: 11px;&quot;&gt;수강완료한 강의는 제외 한다.&lt;/span&gt;&lt;/div&gt;&lt;/div&gt;" style="text;whiteSpace=wrap;html=1;fontFamily=Courier New;fontSize=11;fontStyle=1" parent="1" vertex="1">
          <mxGeometry x="262.36" y="-430" width="280" height="70" as="geometry" />
        </mxCell>
        <mxCell id="X1FmaqOlLXCAKgm-FoMj-1" value="" style="verticalLabelPosition=bottom;verticalAlign=top;html=1;shape=mxgraph.basic.patternFillRect;fillStyle=diag;step=5;fillStrokeWidth=0.2;fillStrokeColor=#dddddd;sketch=1;hachureGap=4;jiggle=2;curveFitting=1;fontFamily=Courier New;fontSize=11;fontStyle=0" parent="1" vertex="1">
          <mxGeometry x="510" y="-1160" width="300" height="380" as="geometry" />
        </mxCell>
        <mxCell id="X1FmaqOlLXCAKgm-FoMj-2" value="시작/끝" style="strokeWidth=2;html=1;shape=mxgraph.flowchart.terminator;whiteSpace=wrap;sketch=1;hachureGap=4;jiggle=2;curveFitting=1;fontFamily=Courier New;labelBackgroundColor=none;fontStyle=0;fillColor=#eeeeee;strokeColor=#36393d;fontSize=11;" parent="1" vertex="1">
          <mxGeometry x="537.3499999999999" y="-1130" width="88.44" height="40" as="geometry" />
        </mxCell>
        <mxCell id="X1FmaqOlLXCAKgm-FoMj-3" value="&lt;font style=&quot;font-size: 11px;&quot;&gt;프로세스의 시작과 끝&lt;/font&gt;" style="text;html=1;align=center;verticalAlign=middle;whiteSpace=wrap;rounded=0;fontFamily=Courier New;fontSize=11;fontStyle=0" parent="1" vertex="1">
          <mxGeometry x="650" y="-1125" width="130" height="30" as="geometry" />
        </mxCell>
        <mxCell id="X1FmaqOlLXCAKgm-FoMj-4" value="&lt;div style=&quot;font-size: 11px;&quot;&gt;동작&lt;/div&gt;" style="rounded=1;whiteSpace=wrap;html=1;absoluteArcSize=1;arcSize=14;strokeWidth=2;sketch=1;hachureGap=4;jiggle=2;curveFitting=1;fontFamily=Courier New;fillColor=#eeeeee;strokeColor=#36393d;fontSize=11;fontStyle=0" parent="1" vertex="1">
          <mxGeometry x="542.5" y="-1067.5" width="78.13" height="37.5" as="geometry" />
        </mxCell>
        <mxCell id="X1FmaqOlLXCAKgm-FoMj-5" value="&lt;font style=&quot;font-size: 11px;&quot;&gt;각종 연산 처리&lt;/font&gt;" style="text;html=1;align=center;verticalAlign=middle;whiteSpace=wrap;rounded=0;fontFamily=Courier New;fontSize=11;fontStyle=0" parent="1" vertex="1">
          <mxGeometry x="647.35" y="-1067.5" width="130" height="30" as="geometry" />
        </mxCell>
        <mxCell id="X1FmaqOlLXCAKgm-FoMj-6" value="입력/출력" style="shape=parallelogram;html=1;strokeWidth=2;perimeter=parallelogramPerimeter;whiteSpace=wrap;rounded=1;arcSize=12;size=0.23;fillColor=#eeeeee;strokeColor=#36393d;sketch=1;curveFitting=1;jiggle=2;fontFamily=Courier New;fontSize=11;fontStyle=0" parent="1" vertex="1">
          <mxGeometry x="532.36" y="-1006.25" width="98.43" height="36.25" as="geometry" />
        </mxCell>
        <mxCell id="X1FmaqOlLXCAKgm-FoMj-7" value="&lt;font style=&quot;font-size: 11px;&quot;&gt;데이터의 입력과 출력 표시&lt;/font&gt;" style="text;html=1;align=center;verticalAlign=middle;whiteSpace=wrap;rounded=0;fontFamily=Courier New;fontSize=11;fontStyle=0" parent="1" vertex="1">
          <mxGeometry x="635" y="-1006.25" width="160" height="30" as="geometry" />
        </mxCell>
        <mxCell id="X1FmaqOlLXCAKgm-FoMj-8" value="분기점" style="strokeWidth=2;html=1;shape=mxgraph.flowchart.decision;whiteSpace=wrap;sketch=1;hachureGap=4;jiggle=2;curveFitting=1;fontFamily=Courier New;fillColor=#eeeeee;strokeColor=#36393d;fontSize=11;fontStyle=0" parent="1" vertex="1">
          <mxGeometry x="539.86" y="-960" width="83.43" height="67.5" as="geometry" />
        </mxCell>
        <mxCell id="X1FmaqOlLXCAKgm-FoMj-9" value="&lt;font style=&quot;font-size: 11px;&quot;&gt;판단 및 분기&lt;/font&gt;" style="text;html=1;align=center;verticalAlign=middle;whiteSpace=wrap;rounded=0;fontFamily=Courier New;fontSize=11;fontStyle=0" parent="1" vertex="1">
          <mxGeometry x="635" y="-941.25" width="160" height="30" as="geometry" />
        </mxCell>
        <mxCell id="X1FmaqOlLXCAKgm-FoMj-10" value="" style="endArrow=classic;html=1;rounded=0;sketch=1;hachureGap=4;jiggle=2;curveFitting=1;fontFamily=Courier New;exitX=0.5;exitY=1;exitDx=0;exitDy=0;exitPerimeter=0;fillColor=#eeeeee;strokeColor=#36393d;fontSize=11;fontStyle=0" parent="1" edge="1">
          <mxGeometry width="50" height="50" relative="1" as="geometry">
            <mxPoint x="543.5" y="-870" as="sourcePoint" />
            <mxPoint x="620" y="-870" as="targetPoint" />
          </mxGeometry>
        </mxCell>
        <mxCell id="X1FmaqOlLXCAKgm-FoMj-11" value="&lt;font style=&quot;font-size: 11px;&quot;&gt;흐름의 방향 표시&lt;/font&gt;" style="text;html=1;align=center;verticalAlign=middle;whiteSpace=wrap;rounded=0;fontFamily=Courier New;fontSize=11;fontStyle=0" parent="1" vertex="1">
          <mxGeometry x="635" y="-880" width="160" height="30" as="geometry" />
        </mxCell>
        <mxCell id="X1FmaqOlLXCAKgm-FoMj-12" value="" style="strokeWidth=2;html=1;shape=mxgraph.flowchart.annotation_2;align=left;labelPosition=right;pointerEvents=1;fontFamily=Courier New;fontSize=11;fontStyle=0" parent="1" vertex="1">
          <mxGeometry x="552.83" y="-840" width="47.5" height="40" as="geometry" />
        </mxCell>
        <mxCell id="X1FmaqOlLXCAKgm-FoMj-13" value="&lt;font style=&quot;font-size: 11px;&quot;&gt;주석&lt;/font&gt;" style="text;html=1;align=center;verticalAlign=middle;whiteSpace=wrap;rounded=0;fontFamily=Courier New;fontSize=11;fontStyle=0" parent="1" vertex="1">
          <mxGeometry x="635" y="-835" width="160" height="30" as="geometry" />
        </mxCell>
      </root>
    </mxGraphModel>
  </diagram>
</mxfile>
